<?xml version="1.0" encoding="utf-8"?>
<!-- Svg Vector Icons : http://www.onlinewebfonts.com/icon -->
<!DOCTYPE svg PUBLIC "-//W3C//DTD SVG 1.1//EN" "http://www.w3.org/Graphics/SVG/1.1/DTD/svg11.dtd">
<svg version="1.1" xmlns="http://www.w3.org/2000/svg" xmlns:xlink="http://www.w3.org/1999/xlink" x="0px" y="0px" viewBox="0 0 1000 1000" enable-background="new 0 0 1000 1000" xml:space="preserve">
<metadata> Svg Vector Icons : http://www.onlinewebfonts.com/icon </metadata>
<g><path d="M438.8,561.3L377.5,500L193.8,683.8l183.8,183.8l61.3-61.3L316.3,683.8L438.8,561.3z M561.3,806.3l61.3,61.3l183.8-183.8L622.5,500l-61.3,61.3l122.5,122.5L561.3,806.3z M874.6,200.9L737.9,64.1C708.1,34.4,649.3,10,607.2,10H147.8c-42.1,0-76.6,34.5-76.6,76.6v826.9c0,42.1,34.5,76.6,76.6,76.6h704.4c42.1,0,76.6-34.5,76.6-76.6V331.6C928.8,289.5,904.4,230.6,874.6,200.9L874.6,200.9z M831.3,244.2c3,3,6,6.7,8.9,10.8H683.8V98.6c4.2,2.9,7.8,5.9,10.8,8.9L831.3,244.2L831.3,244.2z M867.5,913.4c0,8.3-7,15.3-15.3,15.3H147.8c-8.3,0-15.3-7-15.3-15.3V86.6c0-8.3,7-15.3,15.3-15.3h459.4c4.6,0,9.8,0.6,15.3,1.6v243.4h243.4c1,5.5,1.6,10.7,1.6,15.3V913.4z"/></g>
</svg>