<?xml version="1.0" encoding="utf-8"?>
<!-- Svg Vector Icons : http://www.onlinewebfonts.com/icon -->
<!DOCTYPE svg PUBLIC "-//W3C//DTD SVG 1.1//EN" "http://www.w3.org/Graphics/SVG/1.1/DTD/svg11.dtd">
<svg version="1.1" xmlns="http://www.w3.org/2000/svg" xmlns:xlink="http://www.w3.org/1999/xlink" x="0px" y="0px" viewBox="0 0 1000 1000" enable-background="new 0 0 1000 1000" xml:space="preserve">
<metadata> Svg Vector Icons : http://www.onlinewebfonts.com/icon </metadata>
<g><g transform="translate(0.000000,512.000000) scale(0.100000,-0.100000)"><path d="M9242.1,5013c-527.7-74.8-1494.9-541.1-2471.6-1193.6c-410.7-272.5-708.1-502.8-963.3-742.6c-237.9-224.5-378-316.6-719.6-479.7c-727.3-343.5-1358.6-460.5-2628.9-491.2c-591-15.4-969.1-38.4-1193.6-76.8c-370.4-65.2-673.5-184.2-907.6-360.8C129.2,1497.6,77.3,1426.6,108,1324.9c7.7-24.9,449-479.7,980.6-1013.2l967.1-969.1l-211.1-211.1l-211.1-211.1l307-307l307-308.9l-635.2-285.9c-347.3-157.4-637.1-291.7-640.9-297.4s349.2-368.4,784.9-804l792.5-792.5l134.3,341.6c74.8,190,191.9,493.2,264.8,675.5l130.5,332l222.6-218.8c122.8-119,284-274.4,356.9-345.4l134.3-126.7l211.1,209.2l211.1,211.1l986.3-986.3c646.7-646.7,1003.6-990.2,1034.3-995.9c90.2-17.3,155.4,24.9,282.1,184.2c220.7,276.3,356.9,610.2,422.2,1034.3c15.4,109.4,38.4,435.6,48,725.4c51.8,1402.7,76.8,1669.5,211.1,2199.1c109.4,431.8,278.3,838.6,516.2,1239.6c51.8,86.3,94,166.9,94,174.6c1.9,9.6,82.5,99.8,180.4,201.5c420.2,437.5,1036.2,1364.4,1445,2172.2c447.1,886.6,568,1421.9,381.9,1690.6C9720,4982.3,9495.4,5049.5,9242.1,5013z M8894.8,4017.1c335.8-335.8,378-385.7,366.5-426c-32.6-109.4-426-836.6-600.6-1109.1l-65.3-103.6l-669.7,669.7c-368.4,368.4-662,675.5-654.4,681.2c72.9,71,1164.8,667.8,1222.4,669.7C8505.3,4399,8685.7,4228.2,8894.8,4017.1z M7672.5,2802.4c393.4-393.4,715.8-723.4,715.8-731.1c0-19.2-126.7-201.5-353.1-502.8c-145.8-193.8-479.7-539.2-2139.6-2202.9C4813.3-1720.5,3894.1-2633.9,3853.8-2666.5l-74.8-59.5L3422-2369.1l-358.8,358.8l687,687l685.1,685.1l-124.7,124.7l-124.7,124.7l-687-687l-685.1-685.1l-341.6,341.6l-339.7,339.7L4160.8,946.8C5373.6,2157.7,6256.3,3023.1,6354.1,3098c190,145.8,575.7,418.3,593,418.3C6952.9,3516.3,7281,3193.9,7672.5,2802.4z M3565.9,854.7L2305.2-407.9l-886.5,888.5L530.2,1369l48,38.4c82.5,65.2,347.3,186.1,498.9,226.4c253.3,69.1,531.6,97.9,1170.5,117.1c995.9,28.8,1327.9,55.7,1784.6,143.9c236,46.1,692.7,168.9,748.4,203.4c15.4,7.7,32.6,17.3,38.4,17.3S4260.6,1547.5,3565.9,854.7z M6952.9-248.7c-209.2-644.8-253.3-1005.5-310.9-2567.5c-19.2-525.8-48-771.4-115.1-1013.2c-42.2-149.7-161.2-404.9-226.4-483.6l-40.3-48L5356.3-3459l-901.9,901.9l1279.9,1279.9C6438.6-572.9,7018.1,0.8,7021.9-5C7025.8-8.8,6995.1-118.2,6952.9-248.7z"/></g></g>
</svg>