<?xml version="1.0" encoding="utf-8"?>
<!-- Svg Vector Icons : http://www.onlinewebfonts.com/icon -->
<!DOCTYPE svg PUBLIC "-//W3C//DTD SVG 1.1//EN" "http://www.w3.org/Graphics/SVG/1.1/DTD/svg11.dtd">
<svg version="1.1" xmlns="http://www.w3.org/2000/svg" xmlns:xlink="http://www.w3.org/1999/xlink" x="0px" y="0px" viewBox="0 0 1000 1000" enable-background="new 0 0 1000 1000" xml:space="preserve">
<metadata> Svg Vector Icons : http://www.onlinewebfonts.com/icon </metadata>
<g><g><path d="M290.3,732.6c-11.6,0-23.2-4.1-32.5-12.3L10,500l261.6-232.5c20.2-17.9,51.1-16.2,69.1,4.1c18,20.2,16.2,51.2-4.1,69.2L157.4,500l165.4,147c20.2,18,22,48.9,4.1,69.2C317.3,727.1,303.8,732.6,290.3,732.6L290.3,732.6z M728.4,732.5L990,500L742.2,279.7c-20.2-18-51.2-16.2-69.1,4.1c-18,20.2-16.2,51.2,4.1,69.2L842.6,500L663.4,659.3c-20.2,18-22,48.9-4.1,69.2c9.6,10.9,23.1,16.5,36.6,16.5C707.5,744.9,719.1,740.8,728.4,732.5L728.4,732.5z M499.3,801.9l98-587.7c4.5-26.7-13.6-51.9-40.3-56.4c-26.8-4.5-52,13.6-56.3,40.3l-98,587.7c-4.5,26.7,13.6,51.9,40.3,56.4c2.7,0.4,5.4,0.6,8.1,0.6C474.6,842.8,495.3,825.8,499.3,801.9z"/></g></g>
</svg>