<?xml version="1.0" encoding="utf-8"?>
<!-- Svg Vector Icons : http://www.onlinewebfonts.com/icon -->
<!DOCTYPE svg PUBLIC "-//W3C//DTD SVG 1.1//EN" "http://www.w3.org/Graphics/SVG/1.1/DTD/svg11.dtd">
<svg version="1.1" xmlns="http://www.w3.org/2000/svg" xmlns:xlink="http://www.w3.org/1999/xlink" x="0px" y="0px" viewBox="0 0 1000 1000" enable-background="new 0 0 1000 1000" xml:space="preserve">
<metadata> Svg Vector Icons : http://www.onlinewebfonts.com/icon </metadata>
<g><g><g><polygon points="373,590.7 264.1,699.6 373,808.5 398.4,783.1 314.9,699.6 398.4,616.2 "/><polygon points="445.6,844.8 481.9,844.8 554.4,554.4 518.1,554.4 "/><path d="M627,10h-18.1H227.8c-39.9,0-72.6,32.7-72.6,72.6v834.8c0,39.9,32.7,72.6,72.6,72.6h544.4c39.9,0,72.6-32.7,72.6-72.6V282.2v-18.1L627,10z M627,64.4l170.6,199.6H663.3c-18.1,0-36.3-18.1-36.3-36.3V64.4z M808.5,917.4c0,18.1-14.5,36.3-36.3,36.3H227.8c-18.1,0-36.3-14.5-36.3-36.3V82.6c0-18.1,14.5-36.3,36.3-36.3h363v181.5c0,39.9,32.7,72.6,72.6,72.6h145.2V917.4z"/><polygon points="601.6,616.2 685.1,699.6 601.6,783.1 627,808.5 735.9,699.6 627,590.7 "/></g></g><g></g><g></g><g></g><g></g><g></g><g></g><g></g><g></g><g></g><g></g><g></g><g></g><g></g><g></g><g></g></g>
</svg>