<?xml version="1.0" encoding="UTF-8" standalone="no"?>
<svg
        xmlns:dc="http://purl.org/dc/elements/1.1/"
        xmlns:cc="http://creativecommons.org/ns#"
        xmlns:rdf="http://www.w3.org/1999/02/22-rdf-syntax-ns#"
        xmlns:sodipodi="http://sodipodi.sourceforge.net/DTD/sodipodi-0.dtd"
        xmlns:inkscape="http://www.inkscape.org/namespaces/inkscape"
        xmlns="http://www.w3.org/2000/svg"
        viewBox="0 0 87.84 36"
        width="87.84"
        height="36"
        version="1.1"
        id="svg843"
        sodipodi:docname="logo.svg"
        inkscape:export-filename="/Users/slarosa/pyrtlib.png"
        inkscape:export-xdpi="1093.3334"
        inkscape:export-ydpi="1093.3334"
        inkscape:version="1.0.1 (c497b03c, 2020-09-10)">
    <metadata
            id="metadata849">
        <rdf:RDF>
            <cc:Work
                    rdf:about="">
                <dc:format>image/svg+xml</dc:format>
                <dc:type
                        rdf:resource="http://purl.org/dc/dcmitype/StillImage"/>
            </cc:Work>
        </rdf:RDF>
    </metadata>
    <defs
            id="defs847"/>
    <sodipodi:namedview
            pagecolor="#ffffff"
            bordercolor="#666666"
            borderopacity="1"
            objecttolerance="10"
            gridtolerance="10"
            guidetolerance="10"
            inkscape:pageopacity="0"
            inkscape:pageshadow="2"
            inkscape:window-width="1680"
            inkscape:window-height="1005"
            id="namedview845"
            showgrid="false"
            inkscape:zoom="12.067396"
            inkscape:cx="43.919998"
            inkscape:cy="18"
            inkscape:window-x="0"
            inkscape:window-y="23"
            inkscape:window-maximized="1"
            inkscape:current-layer="svg843"/>
    <g
            fill="#ead017"
            color="#ead017"
            transform="matrix(0.2800001,0,0,0.2800001,4.226264,5.56436)"
            id="g839">
        <svg
                width="100"
                height="88.825996"
                x="0.0"
                y="0.0"
                viewBox="0 0 100 88.826"
                version="1.1"
                id="svg837">
            <path
                    d="m 38.538,60.042 c -0.388,0.178 -0.792,0.274 -1.206,0.274 -3.097,0 -5.607,-5.241 -5.607,-11.707 0,-5.978 2.146,-10.905 4.917,-11.616 V 36.991 L 40.302,35.453 27.363,9.958 0,0 32.667,64.373 60.03,74.332 50.282,55.123 38.538,60.044 v -0.002 z"
                    id="path833"/>
            <path
                    d="M 67.333,24.453 39.97,14.494 48.796,31.888 60.442,26.997 c 0.124,-0.062 0.251,-0.115 0.378,-0.159 l 0.027,-0.011 v 0.002 c 0.289,-0.097 0.585,-0.148 0.887,-0.148 3.097,0 5.606,5.24 5.606,11.707 0,5.558 -1.854,10.208 -4.343,11.405 v 0.003 l -0.059,0.025 c -0.059,0.026 -0.117,0.051 -0.177,0.074 L 58.779,51.563 72.635,78.868 100,88.826 Z"
                    id="path835"/>
        </svg>
    </g>
    <text
            xml:space="preserve"
            style="font-style:normal;font-weight:normal;font-size:18.6667px;line-height:1.25;font-family:sans-serif;fill:#1662a6;fill-opacity:1;stroke:none"
            x="34.339565"
            y="24.066683"
            id="text853"><tspan
       sodipodi:role="line"
       id="tspan851"
       x="34.339565"
       y="24.066683"
       style="font-style:normal;font-variant:normal;font-weight:300;font-stretch:normal;font-size:18.6667px;font-family:'Apple SD Gothic Neo';-inkscape-font-specification:'Apple SD Gothic Neo Light';fill:#1662a6;fill-opacity:1">pyrtlib</tspan></text>
</svg>
