<?xml version="1.0" encoding="UTF-8" standalone="no"?>
<svg
   xmlns:dc="http://purl.org/dc/elements/1.1/"
   xmlns:cc="http://creativecommons.org/ns#"
   xmlns:rdf="http://www.w3.org/1999/02/22-rdf-syntax-ns#"
   xmlns:svg="http://www.w3.org/2000/svg"
   xmlns="http://www.w3.org/2000/svg"
   xmlns:sodipodi="http://sodipodi.sourceforge.net/DTD/sodipodi-0.dtd"
   xmlns:inkscape="http://www.inkscape.org/namespaces/inkscape"
   viewBox="0 0 87.84 36"
   width="87.84"
   height="36"
   version="1.1"
   id="svg843"
   sodipodi:docname="logo_new.svg"
   inkscape:export-filename="/Users/slarosa/dev/pyrtlib/resources/logo/logo_white_large_new.png"
   inkscape:export-xdpi="1093.3334"
   inkscape:export-ydpi="1093.3334"
   inkscape:version="1.0.1 (c497b03c, 2020-09-10)">
  <metadata
     id="metadata849">
    <rdf:RDF>
      <cc:Work
         rdf:about="">
        <dc:format>image/svg+xml</dc:format>
        <dc:type
           rdf:resource="http://purl.org/dc/dcmitype/StillImage" />
        <dc:title></dc:title>
      </cc:Work>
    </rdf:RDF>
  </metadata>
  <defs
     id="defs847">
    <inkscape:path-effect
       effect="bspline"
       id="path-effect2094"
       is_visible="true"
       lpeversion="1"
       weight="33.333333"
       steps="2"
       helper_size="0"
       apply_no_weight="true"
       apply_with_weight="true"
       only_selected="false" />
    <inkscape:path-effect
       effect="bspline"
       id="path-effect2080"
       is_visible="true"
       lpeversion="1"
       weight="33.333333"
       steps="2"
       helper_size="0"
       apply_no_weight="true"
       apply_with_weight="true"
       only_selected="false" />
    <inkscape:path-effect
       effect="bspline"
       id="path-effect2076"
       is_visible="true"
       lpeversion="1"
       weight="33.333333"
       steps="2"
       helper_size="0"
       apply_no_weight="true"
       apply_with_weight="true"
       only_selected="false" />
    <inkscape:path-effect
       effect="bspline"
       id="path-effect2071"
       is_visible="true"
       lpeversion="1"
       weight="33.333333"
       steps="2"
       helper_size="0"
       apply_no_weight="true"
       apply_with_weight="true"
       only_selected="false" />
    <inkscape:path-effect
       effect="bspline"
       id="path-effect2055"
       is_visible="true"
       lpeversion="1"
       weight="33.333333"
       steps="2"
       helper_size="0"
       apply_no_weight="true"
       apply_with_weight="true"
       only_selected="false" />
  </defs>
  <sodipodi:namedview
     pagecolor="#ffffff"
     bordercolor="#666666"
     borderopacity="1"
     objecttolerance="10"
     gridtolerance="10"
     guidetolerance="10"
     inkscape:pageopacity="0"
     inkscape:pageshadow="2"
     inkscape:window-width="1920"
     inkscape:window-height="1155"
     id="namedview845"
     showgrid="false"
     inkscape:zoom="14.799636"
     inkscape:cx="41.960491"
     inkscape:cy="15.905354"
     inkscape:window-x="0"
     inkscape:window-y="23"
     inkscape:window-maximized="1"
     inkscape:current-layer="svg843"
     inkscape:document-rotation="0" />
  <text
     xml:space="preserve"
     style="font-style:normal;font-weight:normal;font-size:18.6667px;line-height:1.25;font-family:sans-serif;fill:#1662a6;fill-opacity:1;stroke:none"
     x="30.474709"
     y="22.498312"
     id="text853"
     inkscape:export-xdpi="1093"
     inkscape:export-ydpi="1093"><tspan
       sodipodi:role="line"
       id="tspan851"
       x="30.474709"
       y="22.498312"
       style="font-style:normal;font-variant:normal;font-weight:300;font-stretch:normal;font-size:18.6667px;font-family:'Apple SD Gothic Neo';-inkscape-font-specification:'Apple SD Gothic Neo Light';fill:#1662a6;fill-opacity:1">pyrtlib</tspan></text>
  <path
     d="m 12.69341,16.439115 c -0.09163,0.04038 -0.187033,0.06214 -0.284799,0.06214 -0.731363,0 -1.324104,-1.188701 -1.324104,-2.655242 0,-1.35586 0.506782,-2.473344 1.161159,-2.634605 v -4.53e-4 l 0.864316,-0.348828 -3.05557,-5.7824728 -6.4618264,-2.2585562 7.7143764,14.600323 6.461827,2.258783 -2.30201,-4.356758 -2.773369,1.116122 z"
     id="path833"
     style="color:#ead017;fill:#ead017;stroke:none;stroke-width:0.231433;stroke-opacity:1" />
  <path
     id="path835"
     style="color:#ead017;fill:#ead017;stroke:none;stroke-width:0.231433;stroke-opacity:1"
     d="M 13.03125 6.109375 L 15.115234 10.052734 L 17.865234 8.9433594 C 17.894514 8.9292994 17.925098 8.9181731 17.955078 8.9082031 L 17.960938 8.90625 C 18.029187 8.88425 18.100557 8.8730469 18.171875 8.8730469 C 18.903239 8.8730469 19.494141 10.060577 19.494141 11.527344 C 19.494141 12.787945 19.056533 13.843744 18.46875 14.115234 L 18.455078 14.121094 C 18.441138 14.126994 18.428233 14.133472 18.414062 14.138672 L 17.472656 14.515625 L 20.746094 20.708984 L 27.207031 22.966797 L 19.494141 8.3671875 L 13.03125 6.109375 z M 21.101562 14.960938 A 1.4630942 1.3770299 0 0 1 21.128906 14.960938 A 1.4630942 1.3770299 0 0 1 22.591797 16.337891 A 1.4630942 1.3770299 0 0 1 21.128906 17.714844 A 1.4630942 1.3770299 0 0 1 19.666016 16.337891 A 1.4630942 1.3770299 0 0 1 21.101562 14.960938 z " />
  <path
     id="path2065-5-0"
     style="fill:#ead017;fill-opacity:1;stroke:none;stroke-width:0.165;stroke-miterlimit:4;stroke-dasharray:none;stroke-opacity:1"
     d="M 26.734817,24.423488 23.261902,23.264069 19.671046,22.0641 18.880104,21.799525 11.083877,19.01098 c -1.008313,2.790504 -0.432404,5.904776 1.508175,8.155526 1.941096,2.250712 4.947812,3.290608 7.873659,2.723167 2.925918,-0.567449 5.319918,-2.654835 6.269106,-5.466185 z"
     sodipodi:nodetypes="ccccccsc" />
  <path
     style="opacity:1;fill:#1662a6;fill-opacity:1;stroke:none;stroke-width:0.0111489;stroke-miterlimit:4;stroke-dasharray:none;stroke-opacity:1"
     d="m 20.474818,17.510123 c -0.576204,-0.294387 -0.83881,-0.844929 -0.715798,-1.500639 0.09974,-0.531672 0.733577,-0.992183 1.365614,-0.992183 0.692322,0 1.211313,0.388167 1.384436,1.035455 0.282905,1.057749 -1.007279,1.982056 -2.034252,1.457367 z"
     id="path2810"
     inkscape:export-xdpi="1093"
     inkscape:export-ydpi="1093" />
  <path
     style="opacity:1;fill:#1662a6;fill-opacity:1;stroke:none;stroke-width:0.0111489;stroke-miterlimit:4;stroke-dasharray:none;stroke-opacity:1"
     d="M 14.392246,18.465706 C 12.701326,17.872004 11.309774,17.364709 11.299908,17.338385 11.290042,17.312061 9.5801082,14.069593 7.500054,10.132901 5.4199997,6.1962087 3.7302278,2.9631881 3.7450051,2.9484108 3.7597824,2.9336334 5.1808584,3.4138092 6.9029517,4.0154681 L 10.03403,5.1093933 11.498597,7.889066 c 0.805511,1.52882 1.474447,2.820278 1.486523,2.869907 0.01388,0.05703 -0.188244,0.181348 -0.549289,0.337847 -0.663898,0.287772 -0.907819,0.550005 -1.152562,1.239089 -0.209907,0.590999 -0.266653,1.993752 -0.106257,2.626635 0.243503,0.9608 0.690665,1.550933 1.17519,1.550933 0.159345,0 0.775894,-0.20974 1.669986,-0.568102 0.77956,-0.312456 1.423077,-0.562679 1.430038,-0.556051 0.02503,0.02384 2.183342,4.116937 2.183342,4.140573 0,0.06558 -0.391273,-0.0628 -3.243322,-1.064191 z"
     id="path2812" />
</svg>
