<?xml version="1.0" encoding="UTF-8" standalone="no"?>
<svg
   viewBox="0 0 1000 1000"
   width="1000"
   height="1000"
   version="1.1"
   id="svg843"
   sodipodi:docname="thumb_logo.svg"
   inkscape:export-filename="/Users/slarosa/dev/pyrtlib/resources/logo/pyrtlib_32x32.png"
   inkscape:export-xdpi="30.719999"
   inkscape:export-ydpi="30.719999"
   inkscape:version="1.1.1 (c3084ef, 2021-09-22)"
   xmlns:inkscape="http://www.inkscape.org/namespaces/inkscape"
   xmlns:sodipodi="http://sodipodi.sourceforge.net/DTD/sodipodi-0.dtd"
   xmlns="http://www.w3.org/2000/svg"
   xmlns:svg="http://www.w3.org/2000/svg"
   xmlns:rdf="http://www.w3.org/1999/02/22-rdf-syntax-ns#"
   xmlns:cc="http://creativecommons.org/ns#"
   xmlns:dc="http://purl.org/dc/elements/1.1/">
  <metadata
     id="metadata849">
    <rdf:RDF>
      <cc:Work
         rdf:about="">
        <dc:format>image/svg+xml</dc:format>
        <dc:type
           rdf:resource="http://purl.org/dc/dcmitype/StillImage" />
      </cc:Work>
    </rdf:RDF>
  </metadata>
  <defs
     id="defs847">
    <inkscape:path-effect
       effect="bspline"
       id="path-effect2094"
       is_visible="true"
       lpeversion="1"
       weight="33.333333"
       steps="2"
       helper_size="0"
       apply_no_weight="true"
       apply_with_weight="true"
       only_selected="false" />
    <inkscape:path-effect
       effect="bspline"
       id="path-effect2080"
       is_visible="true"
       lpeversion="1"
       weight="33.333333"
       steps="2"
       helper_size="0"
       apply_no_weight="true"
       apply_with_weight="true"
       only_selected="false" />
    <inkscape:path-effect
       effect="bspline"
       id="path-effect2076"
       is_visible="true"
       lpeversion="1"
       weight="33.333333"
       steps="2"
       helper_size="0"
       apply_no_weight="true"
       apply_with_weight="true"
       only_selected="false" />
    <inkscape:path-effect
       effect="bspline"
       id="path-effect2071"
       is_visible="true"
       lpeversion="1"
       weight="33.333333"
       steps="2"
       helper_size="0"
       apply_no_weight="true"
       apply_with_weight="true"
       only_selected="false" />
    <inkscape:path-effect
       effect="bspline"
       id="path-effect2055"
       is_visible="true"
       lpeversion="1"
       weight="33.333333"
       steps="2"
       helper_size="0"
       apply_no_weight="true"
       apply_with_weight="true"
       only_selected="false" />
  </defs>
  <sodipodi:namedview
     pagecolor="#ffffff"
     bordercolor="#666666"
     borderopacity="1"
     objecttolerance="10"
     gridtolerance="10"
     guidetolerance="10"
     inkscape:pageopacity="0"
     inkscape:pageshadow="2"
     inkscape:window-width="1920"
     inkscape:window-height="1155"
     id="namedview845"
     showgrid="false"
     inkscape:zoom="0.929"
     inkscape:cx="480.08611"
     inkscape:cy="437.56728"
     inkscape:window-x="0"
     inkscape:window-y="24"
     inkscape:window-maximized="0"
     inkscape:current-layer="svg843"
     inkscape:document-rotation="0"
     inkscape:pagecheckerboard="0"
     scale-x="1" />
  <path
     style="opacity:1;fill:#1662a6;fill-opacity:1;stroke:none;stroke-width:0.357719;stroke-miterlimit:4;stroke-dasharray:none;stroke-opacity:1"
     d="m 453.92126,569.65682 c -54.03769,-19.24268 -98.5083,-35.6848 -98.82361,-36.53801 -0.31529,-0.8532 -54.96062,-105.94602 -121.4341,-233.53959 C 167.19008,171.98564 113.18907,67.199023 113.66131,66.720065 c 0.47223,-0.478925 45.88638,15.084207 100.9203,34.584785 l 100.06167,35.45562 46.80399,90.09299 c 25.74218,49.55116 47.11975,91.40907 47.50567,93.01761 0.4436,1.84842 -6.01582,5.87774 -17.55395,10.95009 -21.21656,9.32709 -29.01169,17.8264 -36.83308,40.16056 -6.70811,19.1551 -8.52158,64.62023 -3.3957,85.13284 7.78176,31.14084 22.07197,50.26786 37.55621,50.26786 5.09228,0 24.79569,-6.79797 53.36869,-18.41296 24.91285,-10.12714 45.47808,-18.2372 45.70054,-18.02237 0.79992,0.77268 69.7743,133.43555 69.7743,134.20162 0,2.12554 -12.50414,-2.03543 -103.64869,-34.49189 z"
     id="path2812" />
  <path
     id="path835"
     style="color:#ead017;fill:#ead017;stroke:none;stroke-width:7.44836;stroke-opacity:1"
     d="m 410.42715,169.17124 66.59905,127.80966 87.88332,-35.95635 c 0.93572,-0.45566 1.91299,-0.81633 2.87107,-1.13945 l 0.18856,-0.0638 c 2.18111,-0.71299 4.46188,-1.07615 6.74104,-1.07615 23.37261,0 42.25641,38.48945 42.25641,86.02937 0,40.85782 -13.98489,75.0777 -32.76901,83.87705 l -0.43691,0.19125 c -0.44542,0.19124 -0.85807,0.40121 -1.3109,0.56981 L 552.36474,441.63029 656.97586,642.36552 863.4517,715.54433 616.96649,242.35104 Z M 668.3347,456.0625 a 46.756936,44.631423 0 0 1 0.87371,0 46.756936,44.631423 0 0 1 46.75043,44.62894 46.756936,44.631423 0 0 1 -46.75043,44.62892 46.756936,44.631423 0 0 1 -46.75042,-44.62892 46.756936,44.631423 0 0 1 45.87656,-44.62894 z" />
  <path
     id="path2065-5-0"
     style="fill:#ead017;fill-opacity:1;stroke:none;stroke-width:5.3103;stroke-miterlimit:4;stroke-dasharray:none;stroke-opacity:1"
     d="M 848.35985,762.75669 737.37391,725.17834 622.61888,686.28569 597.3423,677.71047 348.19383,587.32991 c -32.22323,90.44404 -13.81858,191.38186 48.19761,264.33174 62.03271,72.94867 158.12005,106.65312 251.623,88.26158 93.50523,-18.39181 170.01166,-86.04684 200.34541,-177.16654 z"
     sodipodi:nodetypes="ccccccsc" />
  <path
     style="opacity:1;fill:#1662a6;fill-opacity:1;stroke:none;stroke-width:0.358813;stroke-miterlimit:4;stroke-dasharray:none;stroke-opacity:1"
     d="m 648.30548,538.68508 c -18.41408,-9.54149 -26.80633,-27.3853 -22.87517,-48.63777 3.18745,-17.23222 23.44335,-32.15801 43.64172,-32.15801 22.12492,0 38.71061,12.58102 44.24321,33.56052 9.04095,34.28309 -32.19019,64.24115 -65.00976,47.23526 z"
     id="path2810"
     inkscape:export-xdpi="1093"
     inkscape:export-ydpi="1093" />
</svg>
